<?xml version="1.0" encoding="utf-8"?>
<!-- Generator: Adobe Illustrator 27.5.0, SVG Export Plug-In . SVG Version: 6.00 Build 0)  -->
<svg version="1.1" id="Layer_1" xmlns="http://www.w3.org/2000/svg" xmlns:xlink="http://www.w3.org/1999/xlink" x="0px" y="0px"
	 viewBox="0 0 512 512" style="enable-background:new 0 0 512 512;" xml:space="preserve">
<style type="text/css">
	.st1{fill:#004d3e;}
	.st2{fill:#00D4AA;}
</style>
<g>
	<path class="st1" d="M132.17,281.27c5.41,0,10.66,0.68,15.67,1.96c-5.45-21.57-4.55-44.97,4.05-67.31
		c20.57-53.43,77.75-81.93,131.88-67.95c3.19-30.08,22.71-55.28,49.52-66.58c-2.85-1.26-5.74-2.46-8.69-3.59
		C226.18,39.91,115.68,88.98,77.79,187.4c-16.67,43.31-16.5,88.96-2.69,129.73C85.33,295.92,107.04,281.27,132.17,281.27z"/>
	<path class="st1" d="M437.02,195.23c-13.6,25.36-40.19,42.7-70.88,43.13c3.03,18.81,1.31,38.65-6.03,57.72
		c-22.13,57.5-86.69,86.17-144.19,64.03c-7.38-2.84-14.28-6.39-20.66-10.52c-2.36,30.15-25.82,54.35-55.63,57.86
		c14.21,10.91,30.2,20,47.77,26.76c98.42,37.89,208.92-11.19,246.8-109.61C450.83,281.41,450.7,235.91,437.02,195.23z"/>
	<path class="st2" d="M364.99,103.31c-29.48,0-53.38,23.9-53.38,53.38c0,8.28,1.88,16.11,5.25,23.1l-22.4,18.08L172.8,296.05
		l-23.08,18.62c-5.16-3.03-11.14-4.8-17.56-4.8c-19.17,0-34.72,15.54-34.72,34.72c0,19.17,15.54,34.72,34.72,34.72
		c19.17,0,34.72-15.54,34.72-34.72c0-3.79-0.63-7.44-1.76-10.86l23.07-18.62l121.64-98.16l22.42-18.1
		c9.04,7.03,20.39,11.23,32.73,11.23c29.48,0,53.38-23.9,53.38-53.38C418.37,127.21,394.47,103.31,364.99,103.31z"/>
</g>
</svg>
